<?xml version="1.0" encoding="UTF-8" standalone="no"?>
<svg
   width="98"
   height="96"
   version="1.1"
   id="svg1"
   xmlns="http://www.w3.org/2000/svg"
   xmlns:svg="http://www.w3.org/2000/svg">
  <defs
     id="defs1" />
  <path
     fill-rule="evenodd"
     clip-rule="evenodd"
     d="m 49.036719,4.3632253 c -24.55922,0 -44.4129596,20.0001047 -44.4129596,44.7429617 0,19.778285 12.7209756,36.520191 30.3683406,42.445677 2.206375,0.445456 3.014561,-0.962733 3.014561,-2.147284 0,-1.037278 -0.07273,-4.592751 -0.07273,-8.297316 -12.354609,2.667287 -14.92735,-5.333665 -14.92735,-5.333665 -1.985466,-5.185481 -4.927299,-6.518216 -4.927299,-6.518216 -4.043657,-2.740923 0.294547,-2.740923 0.294547,-2.740923 4.485479,0.296364 6.839127,4.592751 6.839127,4.592751 3.970021,6.814581 10.367327,4.889116 12.940977,3.703656 0.367275,-2.889106 1.544554,-4.889117 2.79456,-6.000032 -9.853687,-1.037278 -20.221014,-4.889116 -20.221014,-22.07557 0,-4.889116 1.763646,-8.889137 4.558205,-12.000063 -0.440911,-1.110915 -1.985465,-5.704575 0.441821,-11.852789 0,0 3.750019,-1.185461 12.205518,4.592751 a 42.700224,42.700224 0 0 1 11.103695,-1.481826 c 3.75002,0 7.572767,0.519094 11.102786,1.481826 8.456407,-5.778212 12.206427,-4.592751 12.206427,-4.592751 2.427285,6.148214 0.881822,10.741874 0.440912,11.852789 2.868196,3.110926 4.559115,7.110947 4.559115,12.000063 0,17.186454 -10.367327,20.963746 -20.294652,22.07557 1.61819,1.407281 3.014561,4.073658 3.014561,8.296407 0,6.000032 -0.07273,10.815511 -0.07273,12.296429 0,1.18546 0.809096,2.593649 3.014561,2.149102 C 80.655066,85.625469 93.376042,68.884472 93.376042,49.106187 93.44877,24.36333 73.522302,4.3632253 49.036719,4.3632253 Z"
     fill="#ffffff"
     id="path1"
     style="stroke-width:0.909094" />
</svg>
