<?xml version="1.0" encoding="UTF-8" standalone="no"?>
<!-- Created with Inkscape (http://www.inkscape.org/) -->

<svg
   width="64.685326mm"
   height="44.815029mm"
   viewBox="0 0 64.685326 44.815029"
   version="1.1"
   id="svg1"
   xml:space="preserve"
   xmlns="http://www.w3.org/2000/svg"
   xmlns:svg="http://www.w3.org/2000/svg"><defs
     id="defs1"><rect
       x="383.05719"
       y="338.96048"
       width="113.6952"
       height="130.16507"
       id="rect6" /><rect
       x="349.58618"
       y="414.40308"
       width="168.94894"
       height="159.91708"
       id="rect3" /></defs><g
     id="layer1"
     transform="translate(-83.883215,-120.72064)"><path
       style="fill:#282828;fill-opacity:1;stroke:none;stroke-opacity:1"
       d="m 114.83218,165.47507 c -0.98956,-0.15565 -2.06238,-0.56092 -2.32614,-0.87874 -0.1002,-0.12073 -1.48496,-0.1336 -14.366858,-0.1336 H 83.883217 v -16.256 -16.256 h 0.846666 0.846667 v -2.37368 -2.37368 l 0.366694,-0.15718 c 0.201681,-0.0864 0.716031,-0.28361 1.143,-0.43812 l 0.776306,-0.28095 v -2.34716 c 0,-2.16199 0.01169,-2.35067 0.148166,-2.39166 0.313934,-0.0943 1.881667,-0.38668 2.7305,-0.50923 2.266076,-0.32716 4.518331,-0.43258 6.561667,-0.30712 4.835747,0.29691 8.957737,1.41276 13.292667,3.59843 2.0492,1.0332 3.41425,1.88175 5.2705,3.27628 l 0.35984,0.27033 0.35983,-0.27033 c 1.87052,-1.40525 3.30119,-2.29422 5.31283,-3.30124 6.33918,-3.17335 12.92989,-4.25994 19.812,-3.26635 0.84884,0.12255 2.41657,0.41493 2.7305,0.50923 0.13648,0.041 0.14817,0.22967 0.14817,2.39166 v 2.34716 l 0.77631,0.28095 c 0.42696,0.15451 0.94131,0.35167 1.143,0.43812 l 0.36669,0.15718 v 2.37368 2.37368 h 0.84667 0.84666 v 16.256 16.256 h -14.25596 c -12.8819,0 -14.26666,0.0129 -14.36685,0.1336 -0.17985,0.21671 -0.89468,0.5424 -1.59014,0.7245 -0.75034,0.19648 -2.70961,0.28224 -3.52342,0.15424 z m 0.80394,-19.73157 10e-4,-16.79844 -0.31957,-0.28405 c -1.0727,-0.95345 -3.72776,-2.6076 -5.73824,-3.57503 -5.83184,-2.80624 -12.208513,-3.83041 -18.372667,-2.95089 -0.651933,0.093 -1.413933,0.21552 -1.693333,0.27222 l -0.508,0.10308 -0.02138,16.8275 c -0.01176,9.25513 0.0073,16.82745 0.04233,16.82739 0.03504,-7e-5 0.387559,-0.0575 0.783376,-0.12766 3.103789,-0.55005 6.953706,-0.61297 10.033,-0.16398 5.338614,0.77842 10.724674,2.98655 14.939534,6.12478 0.44011,0.32769 0.81196,0.58404 0.82633,0.56966 0.0144,-0.0144 0.0267,-7.58543 0.0274,-16.82458 z m 2.44247,15.96756 c 3.8679,-2.78876 8.79698,-4.8562 13.5143,-5.6684 2.17436,-0.37437 2.85941,-0.4276 5.50333,-0.4276 2.5721,0 3.3321,0.0553 5.30107,0.38547 0.54069,0.0907 1.00751,0.16486 1.03738,0.16486 0.0299,0 0.0447,-7.57237 0.0329,-16.8275 l -0.0214,-16.8275 -0.508,-0.10308 c -0.2794,-0.0567 -1.04238,-0.17937 -1.6955,-0.2726 -7.32113,-1.04503 -14.94395,0.60486 -21.43671,4.63979 -1.05658,0.65661 -2.68135,1.81908 -2.8843,2.06361 -0.0782,0.0942 -0.10191,3.97779 -0.10316,16.87865 -8.9e-4,9.21597 -0.001,16.78952 -8.1e-4,16.83013 4.5e-4,0.0406 0.073,0.0216 0.16112,-0.0423 0.0882,-0.0639 0.58304,-0.42096 1.09973,-0.79349 z m -30.34304,-0.13083 c 1.306297,-0.47747 3.275842,-1.04971 4.799973,-1.3946 5.849632,-1.32373 11.610947,-1.23789 17.035757,0.25381 0.60082,0.16521 1.10447,0.28832 1.11921,0.27357 0.05,-0.05 -2.42659,-1.24927 -3.44028,-1.66595 -2.05913,-0.84642 -4.56754,-1.57233 -6.72999,-1.94759 -3.579518,-0.62116 -7.911808,-0.54271 -11.445113,0.20727 -0.55049,0.11685 -1.048516,0.21265 -1.106724,0.21288 -0.08427,3.5e-4 -0.105833,-3.05481 -0.105833,-14.99474 V 127.5297 l -0.203811,0.0512 c -0.112096,0.0281 -0.378796,0.12616 -0.592666,0.21783 l -0.388857,0.16668 v 16.97868 c 0,9.33827 0.02858,16.97821 0.0635,16.97764 0.03493,-5.8e-4 0.4826,-0.15423 0.994834,-0.34146 z m 58.039,-16.63618 v -16.97868 l -0.38885,-0.16668 c -0.21387,-0.0917 -0.48057,-0.1897 -0.59267,-0.21783 l -0.20381,-0.0512 v 14.99518 c 0,11.93993 -0.0216,14.99509 -0.10583,14.99474 -0.0582,-2.3e-4 -0.55624,-0.096 -1.10673,-0.21288 -3.52437,-0.74808 -7.87283,-0.82835 -11.42188,-0.21084 -2.40197,0.41792 -4.74544,1.10761 -7.05056,2.075 -0.91604,0.38444 -3.18652,1.49853 -3.14288,1.54217 0.0147,0.0147 0.51795,-0.10787 1.1183,-0.27241 6.30663,-1.72846 12.99919,-1.56988 19.76225,0.46825 0.76835,0.23155 1.7399,0.55026 2.159,0.70825 0.4191,0.15798 0.80962,0.29137 0.86783,0.2964 0.0844,0.007 0.10583,-3.43813 0.10583,-16.96951 z"
       id="path1" /><path
       style="fill:#ffffff;fill-opacity:1"
       d="m 115.50958,162.31299 c -0.39886,-0.34788 -2.75396,-1.90557 -3.60697,-2.38568 -3.74264,-2.10653 -7.74178,-3.48602 -11.80236,-4.07117 -3.076197,-0.4433 -6.872407,-0.38241 -9.906007,0.15888 -0.39582,0.0706 -0.7673,0.12846 -0.8255,0.12853 -0.0843,9e-5 -0.10584,-3.42601 -0.10584,-16.84855 0,-9.26677 0.0286,-16.84892 0.0635,-16.84923 0.0349,-3.1e-4 0.50165,-0.0761 1.03717,-0.1684 2.59596,-0.44748 6.17077,-0.59711 8.466674,-0.35439 6.041693,0.63873 11.559153,2.77665 16.277163,6.30713 l 0.91017,0.68107 v 16.83358 c 0,13.41224 -0.0215,16.83287 -0.10583,16.83013 -0.0582,-0.002 -0.23919,-0.11975 -0.40217,-0.2619 z m 1.524,-16.56823 v -16.83358 l 0.91018,-0.68107 c 4.12124,-3.08392 8.96612,-5.15383 14.02616,-5.99249 2.01549,-0.33405 3.07818,-0.41781 5.25667,-0.41433 2.09788,0.003 3.54351,0.12355 5.461,0.45408 0.53551,0.0923 1.00224,0.16809 1.03716,0.1684 0.0349,3.1e-4 0.0635,7.58246 0.0635,16.84923 0,13.42254 -0.0215,16.84864 -0.10583,16.84855 -0.0582,-7e-5 -0.42968,-0.0579 -0.8255,-0.12853 -3.0336,-0.54129 -6.82981,-0.60218 -9.906,-0.15888 -4.05417,0.58423 -8.09897,1.97999 -11.80236,4.0727 -0.92804,0.52442 -2.76808,1.72942 -3.41465,2.23617 -0.29005,0.22733 -0.56628,0.41332 -0.61385,0.41332 -0.0586,0 -0.0865,-5.43179 -0.0865,-16.83357 z m -30.056677,-0.84125 v -16.99749 l 0.5715,-0.22072 0.5715,-0.22071 0.0214,15.01687 c 0.0132,9.24578 0.0518,15.01687 0.10058,15.01687 0.0436,0 0.31967,-0.0553 0.6136,-0.1228 2.7252,-0.62619 6.63758,-0.88914 9.46676,-0.63626 3.171667,0.28348 6.646437,1.16784 9.679657,2.46354 1.23117,0.52592 2.68503,1.24166 2.98088,1.46749 0.14804,0.11301 0.11961,0.11304 -0.25687,3.5e-4 -2.66398,-0.79747 -5.36118,-1.25265 -8.19102,-1.38232 -4.666327,-0.21383 -9.454367,0.52215 -14.203317,2.18322 -0.67522,0.23618 -1.25624,0.42942 -1.29117,0.42943 -0.0349,1e-5 -0.0635,-7.64886 -0.0635,-16.99747 z m 57.827347,16.603 c -6.14383,-2.21053 -12.84294,-2.81978 -18.83833,-1.71325 -0.91876,0.16958 -2.83631,0.63303 -3.6195,0.87481 -0.22119,0.0683 -0.40216,0.1088 -0.40216,0.09 0,-0.0733 1.19618,-0.69725 2.32643,-1.21345 2.2742,-1.03866 4.65905,-1.81469 7.07156,-2.30107 1.97268,-0.3977 3.04605,-0.51407 5.22238,-0.56618 2.76057,-0.0661 4.68713,0.0981 7.18034,0.61178 0.55827,0.11504 1.04394,0.20916 1.07926,0.20916 0.0353,0 0.0738,-6.75759 0.0856,-15.01687 l 0.0214,-15.01687 0.5715,0.22071 0.5715,0.22072 v 16.99749 c 0,13.5452 -0.0215,16.99609 -0.10583,16.99063 -0.0582,-0.004 -0.58208,-0.1782 -1.16417,-0.38763 z"
       id="path10" /><text
       xml:space="preserve"
       transform="matrix(0.28077844,0,0,0.28850885,-4.2838074,4.4042342)"
       id="text1"
       style="font-style:normal;font-variant:normal;font-weight:normal;font-stretch:normal;font-size:106.993px;font-family:'Droid Sans Mono';-inkscape-font-specification:'Droid Sans Mono, Normal';font-variant-ligatures:normal;font-variant-caps:normal;font-variant-numeric:normal;font-variant-east-asian:normal;text-align:start;writing-mode:lr-tb;direction:ltr;white-space:pre;shape-inside:url(#rect3);display:inline;fill:#282828"><tspan
         x="349.58594"
         y="509.20339"
         id="tspan1">V</tspan></text><text
       xml:space="preserve"
       transform="matrix(0.28850885,0,0,0.28850885,10.346148,26.310636)"
       id="text3"
       style="font-style:normal;font-variant:normal;font-weight:normal;font-stretch:normal;font-size:106.993px;font-family:'Droid Sans Mono';-inkscape-font-specification:'Droid Sans Mono, Normal';font-variant-ligatures:normal;font-variant-caps:normal;font-variant-numeric:normal;font-variant-east-asian:normal;text-align:start;writing-mode:lr-tb;direction:ltr;white-space:pre;shape-inside:url(#rect6);display:inline;fill:#282828"><tspan
         x="383.05664"
         y="433.76198"
         id="tspan2">N</tspan></text></g></svg>
